<svg width="1952" height="278" viewBox="0 0 1952 278" fill="none" xmlns="http://www.w3.org/2000/svg">
<path d="M79.4882 272.64V60.288H0.000156522V0H234.624V60.288H155.136V272.64H79.4882ZM248.109 272.64V0H322.605V115.2L312.621 115.968C314.157 103.424 317.869 93.184 323.757 85.248C329.901 77.056 337.453 70.912 346.413 66.816C355.629 62.72 365.613 60.672 376.365 60.672C392.237 60.672 405.421 64 415.917 70.656C426.413 77.312 434.221 86.656 439.341 98.688C444.717 110.464 447.405 124.032 447.405 139.392V272.64H372.909V155.904C372.909 143.616 371.245 134.272 367.917 127.872C364.589 121.216 358.445 117.888 349.485 117.888C340.781 117.888 334.125 121.216 329.517 127.872C324.909 134.528 322.605 144.64 322.605 158.208V272.64H248.109ZM477.804 272.64V65.28H549.996L552.3 130.56L546.924 129.792C550.764 106.752 556.908 90.24 565.356 80.256C573.804 70.272 585.708 65.28 601.068 65.28H618.732V124.416H600.3C589.292 124.416 580.204 125.568 573.036 127.872C566.124 129.92 560.876 133.632 557.292 139.008C553.964 144.384 552.3 151.936 552.3 161.664V272.64H477.804ZM731.259 277.248C708.987 277.248 689.531 272.768 672.891 263.808C656.251 254.848 643.323 242.304 634.107 226.176C624.891 209.792 620.283 190.72 620.283 168.96C620.283 147.2 624.891 128.256 634.107 112.128C643.323 96 656.251 83.456 672.891 74.496C689.531 65.28 708.987 60.672 731.259 60.672C753.531 60.672 772.731 65.408 788.859 74.88C805.243 84.096 817.787 97.28 826.491 114.432C835.195 131.584 839.547 151.808 839.547 175.104V188.16H697.083C697.595 200.704 701.051 210.048 707.451 216.192C714.107 222.08 722.555 225.024 732.795 225.024C740.219 225.024 746.491 223.616 751.611 220.8C756.987 217.984 760.827 212.992 763.131 205.824L836.859 209.664C831.227 231.936 818.939 248.832 799.995 260.352C781.051 271.616 758.139 277.248 731.259 277.248ZM697.083 148.224H765.051C764.795 136.192 761.595 127.104 755.451 120.96C749.307 114.56 741.243 111.36 731.259 111.36C721.787 111.36 713.851 114.688 707.451 121.344C701.307 128 697.851 136.96 697.083 148.224ZM963.579 277.248C941.307 277.248 921.851 272.768 905.211 263.808C888.571 254.848 875.643 242.304 866.427 226.176C857.211 209.792 852.603 190.72 852.603 168.96C852.603 147.2 857.211 128.256 866.427 112.128C875.643 96 888.571 83.456 905.211 74.496C921.851 65.28 941.307 60.672 963.579 60.672C985.851 60.672 1005.05 65.408 1021.18 74.88C1037.56 84.096 1050.11 97.28 1058.81 114.432C1067.52 131.584 1071.87 151.808 1071.87 175.104V188.16H929.403C929.915 200.704 933.371 210.048 939.771 216.192C946.427 222.08 954.875 225.024 965.115 225.024C972.539 225.024 978.811 223.616 983.931 220.8C989.307 217.984 993.147 212.992 995.451 205.824L1069.18 209.664C1063.55 231.936 1051.26 248.832 1032.32 260.352C1013.37 271.616 990.459 277.248 963.579 277.248ZM929.403 148.224H997.371C997.115 136.192 993.915 127.104 987.771 120.96C981.627 114.56 973.563 111.36 963.579 111.36C954.107 111.36 946.171 114.688 939.771 121.344C933.627 128 930.171 136.96 929.403 148.224ZM1132.71 272.64V60.288H1053.23V0H1287.85V60.288H1208.36V272.64H1132.71ZM1377.62 277.248C1355.09 277.248 1335.38 272.768 1318.49 263.808C1301.85 254.848 1288.79 242.304 1279.32 226.176C1270.1 209.792 1265.49 190.72 1265.49 168.96C1265.49 147.2 1270.1 128.256 1279.32 112.128C1288.79 96 1301.85 83.456 1318.49 74.496C1335.38 65.28 1355.09 60.672 1377.62 60.672C1400.15 60.672 1419.73 65.28 1436.37 74.496C1453.27 83.456 1466.33 96 1475.54 112.128C1485.01 128.256 1489.75 147.2 1489.75 168.96C1489.75 190.72 1485.01 209.792 1475.54 226.176C1466.33 242.304 1453.27 254.848 1436.37 263.808C1419.73 272.768 1400.15 277.248 1377.62 277.248ZM1377.62 223.872C1389.14 223.872 1397.97 219.136 1404.12 209.664C1410.26 200.192 1413.33 186.624 1413.33 168.96C1413.33 151.552 1410.26 138.112 1404.12 128.64C1397.97 118.912 1389.14 114.048 1377.62 114.048C1366.1 114.048 1357.27 118.912 1351.13 128.64C1344.98 138.112 1341.91 151.552 1341.91 168.96C1341.91 186.624 1344.98 200.192 1351.13 209.664C1357.27 219.136 1366.1 223.872 1377.62 223.872ZM1512.28 272.64V65.28H1579.1L1582.17 131.328L1572.95 130.56C1574.49 112.896 1578.33 99.072 1584.47 89.088C1590.87 78.848 1598.81 71.552 1608.28 67.2C1618.01 62.848 1628.76 60.672 1640.54 60.672C1654.87 60.672 1667.29 63.744 1677.78 69.888C1688.54 76.032 1696.86 84.992 1702.74 96.768C1708.63 108.288 1711.58 122.496 1711.58 139.392V272.64H1637.08V165.12C1637.08 155.136 1636.44 146.688 1635.16 139.776C1634.14 132.608 1631.83 127.232 1628.25 123.648C1624.92 119.808 1619.93 117.888 1613.27 117.888C1603.8 117.888 1597.02 121.984 1592.92 130.176C1588.82 138.368 1586.78 150.016 1586.78 165.12V272.64H1512.28ZM1843.36 277.248C1821.09 277.248 1801.63 272.768 1784.99 263.808C1768.35 254.848 1755.42 242.304 1746.21 226.176C1736.99 209.792 1732.38 190.72 1732.38 168.96C1732.38 147.2 1736.99 128.256 1746.21 112.128C1755.42 96 1768.35 83.456 1784.99 74.496C1801.63 65.28 1821.09 60.672 1843.36 60.672C1865.63 60.672 1884.83 65.408 1900.96 74.88C1917.34 84.096 1929.89 97.28 1938.59 114.432C1947.3 131.584 1951.65 151.808 1951.65 175.104V188.16H1809.18C1809.7 200.704 1813.15 210.048 1819.55 216.192C1826.21 222.08 1834.66 225.024 1844.9 225.024C1852.32 225.024 1858.59 223.616 1863.71 220.8C1869.09 217.984 1872.93 212.992 1875.23 205.824L1948.96 209.664C1943.33 231.936 1931.04 248.832 1912.1 260.352C1893.15 271.616 1870.24 277.248 1843.36 277.248ZM1809.18 148.224H1877.15C1876.9 136.192 1873.7 127.104 1867.55 120.96C1861.41 114.56 1853.34 111.36 1843.36 111.36C1833.89 111.36 1825.95 114.688 1819.55 121.344C1813.41 128 1809.95 136.96 1809.18 148.224Z" fill="black"/>
</svg>
